<svg width="24" height="24" viewBox="0 0 24 24" fill="none" xmlns="http://www.w3.org/2000/svg">
<g clip-path="url(#clip0_1_1142)">
<path fill-rule="evenodd" clip-rule="evenodd" d="M0.87868 0.87868C1.44129 0.316071 2.20435 0 3 0H21C21.7956 0 22.5587 0.316071 23.1213 0.87868C23.6839 1.44129 24 2.20435 24 3V21C24 21.7956 23.6839 22.5587 23.1213 23.1213C22.5587 23.6839 21.7956 24 21 24H3C2.20435 24 1.44129 23.6839 0.87868 23.1213C0.316071 22.5587 0 21.7956 0 21V3C0 2.20435 0.316071 1.44129 0.87868 0.87868ZM17.2439 7.12903C16.9484 7.12985 16.665 7.24696 16.4551 7.45505H16.4566C16.4459 7.46541 16.4358 7.47643 16.4266 7.48805L11.2171 14.1256L8.07605 10.9861C7.97306 10.8755 7.84886 10.7869 7.71086 10.7254C7.57286 10.6639 7.42389 10.6308 7.27284 10.6282C7.12178 10.6255 6.97174 10.6533 6.83166 10.7099C6.69157 10.7665 6.56432 10.8507 6.4575 10.9575C6.35067 11.0643 6.26645 11.1916 6.20987 11.3317C6.15329 11.4717 6.1255 11.6218 6.12817 11.7728C6.13083 11.9239 6.16389 12.0729 6.22538 12.2109C6.28687 12.3489 6.37552 12.4731 6.48605 12.5761L10.4536 16.5451C10.5605 16.652 10.6879 16.7363 10.8282 16.7929C10.9685 16.8495 11.1187 16.8772 11.2699 16.8744C11.4212 16.8716 11.5703 16.8384 11.7084 16.7766C11.8464 16.7149 11.9706 16.6259 12.0736 16.5151L18.0616 9.03005C18.2654 8.81605 18.3769 8.5304 18.3719 8.23486C18.3669 7.93931 18.2457 7.65763 18.0346 7.4507C17.8236 7.24376 17.5395 7.12822 17.2439 7.12903Z" fill="#8941FF"/>
</g>
<defs>
<clipPath id="clip0_1_1142">
<rect width="24" height="24" fill="white"/>
</clipPath>
</defs>
</svg>
