<svg aria-hidden="true" style="position: absolute; width: 0; height: 0; overflow: hidden;" version="1.1" xmlns="http://www.w3.org/2000/svg" xmlns:xlink="http://www.w3.org/1999/xlink">
<defs>
<symbol id="logo" viewBox="0 0 32 32">
<path fill="#ed2d95" style="fill: var(--color1, #ed2d95)" d="M9.177 30.268c-0.34 0.202-0.763-0.046-0.76-0.446l0.155-22.127c0.003-0.401 0.43-0.652 0.768-0.452l4.064 2.413c0.156 0.093 0.251 0.264 0.249 0.449l-0.162 17.307c-0.002 0.185-0.1 0.356-0.257 0.449l-4.057 2.408z"></path>
<path fill="#5002b4" style="fill: var(--color2, #5002b4)" d="M7.111 1.404c0-0.399 0.433-0.646 0.776-0.443l16.736 9.947c0.184 0.109 0.281 0.321 0.244 0.532l-0.772 4.384c-0.062 0.354-0.459 0.537-0.768 0.353l-15.964-9.504c-0.156-0.093-0.251-0.261-0.251-0.442v-4.827z"></path>
<path fill="#bd17ac" style="fill: var(--color3, #bd17ac)" d="M13.502 22.411l11.105-6.034v-6.034l-11.105 6.034v6.034z"></path>
<path fill="#bd17ac" style="fill: var(--color3, #bd17ac)" d="M13.502 21.545c0 0.391 0.417 0.639 0.759 0.452l11.648-6.363c0.165-0.090 0.268-0.264 0.268-0.452v-4.862c0-0.391-0.417-0.639-0.759-0.452l-11.648 6.363c-0.165 0.090-0.268 0.263-0.268 0.452v4.862z"></path>
<path fill="#242731" style="fill: var(--color4, #242731)" d="M14.712 10.375c-0.627-0.347-1.403 0.096-1.403 0.8v4.462c0 0.704 0.776 1.147 1.403 0.8l4.026-2.232c0.635-0.352 0.635-1.248 0-1.6l-4.027-2.231z"></path>
<path fill="none" stroke="#bd17ac" style="stroke: var(--color3, #bd17ac)" stroke-linejoin="miter" stroke-linecap="round" stroke-miterlimit="4" stroke-width="1.2395" d="M14.568 23.308l8.792-4.772"></path>
<path fill="none" stroke="#5002b4" style="stroke: var(--color2, #5002b4)" stroke-linejoin="miter" stroke-linecap="round" stroke-miterlimit="4" stroke-width="1.2395" d="M24.348 9.21l-8.673-5.141"></path>
<path fill="none" stroke="#ed2d95" style="stroke: var(--color1, #ed2d95)" stroke-linejoin="miter" stroke-linecap="round" stroke-miterlimit="4" stroke-width="1.2395" d="M7.368 17.973v-10.034"></path>
</symbol>
<symbol id="action-menu" viewBox="0 0 32 32">
<path fill="#7d869e" style="fill: var(--color5, #7d869e)" d="M18.667 8c0 1.473-1.194 2.667-2.667 2.667s-2.667-1.194-2.667-2.667c0-1.473 1.194-2.667 2.667-2.667s2.667 1.194 2.667 2.667z"></path>
<path fill="#7d869e" style="fill: var(--color5, #7d869e)" d="M18.667 16c0 1.473-1.194 2.667-2.667 2.667s-2.667-1.194-2.667-2.667c0-1.473 1.194-2.667 2.667-2.667s2.667 1.194 2.667 2.667z"></path>
<path fill="#7d869e" style="fill: var(--color5, #7d869e)" d="M18.667 24c0 1.473-1.194 2.667-2.667 2.667s-2.667-1.194-2.667-2.667c0-1.473 1.194-2.667 2.667-2.667s2.667 1.194 2.667 2.667z"></path>
</symbol>
<symbol id="Activeoff-1" viewBox="0 0 32 32">
<path fill="none" stroke="#60677a" style="stroke: var(--color6, #60677a)" stroke-linejoin="miter" stroke-linecap="butt" stroke-miterlimit="4" stroke-width="2.6667" d="M4 1.333h24c1.473 0 2.667 1.194 2.667 2.667v24c0 1.473-1.194 2.667-2.667 2.667h-24c-1.473 0-2.667-1.194-2.667-2.667v-24c0-1.473 1.194-2.667 2.667-2.667z"></path>
</symbol>
<symbol id="Activeoff-2" viewBox="0 0 32 32">
<path fill="#60677a" style="fill: var(--color6, #60677a)" d="M30.667 16c0 8.1-6.567 14.667-14.667 14.667s-14.667-6.567-14.667-14.667c0-8.1 6.566-14.667 14.667-14.667s14.667 6.566 14.667 14.667zM3.208 16c0 7.065 5.727 12.792 12.792 12.792s12.792-5.727 12.792-12.792c0-7.065-5.727-12.792-12.792-12.792s-12.792 5.727-12.792 12.792z"></path>
</symbol>
<symbol id="Activeoff" viewBox="0 0 32 32">
<path fill="#60677a" style="fill: var(--color6, #60677a)" d="M28 2c0.53 0 1.039 0.211 1.414 0.586s0.586 0.884 0.586 1.414v24c0 0.53-0.211 1.039-0.586 1.414s-0.884 0.586-1.414 0.586h-24c-0.53 0-1.039-0.211-1.414-0.586s-0.586-0.884-0.586-1.414v-24c0-0.53 0.211-1.039 0.586-1.414s0.884-0.586 1.414-0.586h24zM4 0c-1.061 0-2.078 0.421-2.828 1.172s-1.172 1.768-1.172 2.828v24c0 1.061 0.421 2.078 1.172 2.828s1.768 1.172 2.828 1.172h24c1.061 0 2.078-0.421 2.828-1.172s1.172-1.768 1.172-2.828v-24c0-1.061-0.421-2.078-1.172-2.828s-1.768-1.172-2.828-1.172h-24z"></path>
</symbol>
<symbol id="Activeon-1" viewBox="0 0 32 32">
<path fill="none" stroke="#8941ff" style="stroke: var(--color7, #8941ff)" stroke-linejoin="miter" stroke-linecap="butt" stroke-miterlimit="4" stroke-width="2.6667" d="M4 1.333h24c1.473 0 2.667 1.194 2.667 2.667v24c0 1.473-1.194 2.667-2.667 2.667h-24c-1.473 0-2.667-1.194-2.667-2.667v-24c0-1.473 1.194-2.667 2.667-2.667z"></path>
<path fill="#8941ff" style="fill: var(--color7, #8941ff)" d="M6.667 5.333h18.667c0.736 0 1.333 0.597 1.333 1.333v18.667c0 0.736-0.597 1.333-1.333 1.333h-18.667c-0.736 0-1.333-0.597-1.333-1.333v-18.667c0-0.736 0.597-1.333 1.333-1.333z"></path>
</symbol>
<symbol id="Activeon-2" viewBox="0 0 32 32">
<path fill="#8941ff" style="fill: var(--color7, #8941ff)" d="M26.667 16c0 5.891-4.776 10.667-10.667 10.667s-10.667-4.776-10.667-10.667c0-5.891 4.776-10.667 10.667-10.667s10.667 4.776 10.667 10.667z"></path>
<path fill="#8941ff" style="fill: var(--color7, #8941ff)" d="M30.667 16c0 8.1-6.567 14.667-14.667 14.667s-14.667-6.567-14.667-14.667c0-8.1 6.566-14.667 14.667-14.667s14.667 6.566 14.667 14.667zM3.208 16c0 7.065 5.727 12.792 12.792 12.792s12.792-5.727 12.792-12.792c0-7.065-5.727-12.792-12.792-12.792s-12.792 5.727-12.792 12.792z"></path>
</symbol>
<symbol id="Activeon" viewBox="0 0 32 32">
<path fill="#8941ff" style="fill: var(--color7, #8941ff)" d="M1.172 1.172c0.75-0.75 1.768-1.172 2.828-1.172h24c1.061 0 2.078 0.421 2.828 1.172s1.172 1.768 1.172 2.828v24c0 1.061-0.421 2.078-1.172 2.828s-1.768 1.172-2.828 1.172h-24c-1.061 0-2.078-0.421-2.828-1.172s-1.172-1.768-1.172-2.828v-24c0-1.061 0.421-2.078 1.172-2.828zM22.992 9.505c-0.394 0.001-0.772 0.157-1.052 0.435h0.002c-0.014 0.014-0.028 0.028-0.040 0.044l-6.946 8.85-4.188-4.186c-0.137-0.147-0.303-0.266-0.487-0.348s-0.383-0.126-0.584-0.13c-0.201-0.004-0.401 0.033-0.588 0.109s-0.356 0.188-0.499 0.33c-0.142 0.142-0.255 0.312-0.33 0.499s-0.113 0.387-0.109 0.588c0.004 0.201 0.048 0.4 0.13 0.584s0.2 0.35 0.348 0.487l5.29 5.292c0.143 0.143 0.312 0.255 0.499 0.33s0.387 0.112 0.589 0.109c0.202-0.004 0.401-0.048 0.585-0.13s0.35-0.201 0.487-0.349l7.984-9.98c0.272-0.285 0.42-0.666 0.414-1.060s-0.168-0.77-0.45-1.046c-0.281-0.276-0.66-0.43-1.054-0.429z"></path>
</symbol>
<symbol id="arrow-down" viewBox="0 0 32 32">
<path fill="none" stroke="inherit" stroke-linejoin="round" stroke-linecap="round" stroke-miterlimit="4" stroke-width="1.3333" d="M8 12l8 8 8-8"></path>
</symbol>
<symbol id="cards" viewBox="0 0 32 32">
<path fill="none" stroke="inherit" stroke-linejoin="round" stroke-linecap="butt" stroke-miterlimit="4" stroke-width="1.3333" d="M16 5.333l-9.333 4 9.333 4 9.333-4-9.333-4z"></path>
<path fill="none" d="M10.213 13.755l-3.809 1.633c-0.245 0.105-0.404 0.346-0.404 0.613s0.159 0.508 0.404 0.613l9.333 4c0.168 0.072 0.358 0.072 0.525 0l9.333-4c0.245-0.105 0.404-0.346 0.404-0.613s-0.159-0.508-0.404-0.613l-3.809-1.633-1.692 0.725 3.547 1.52-7.641 3.275-7.641-3.275 3.547-1.52-1.692-0.725z"></path>
<path fill="none" d="M10.213 20.421l-3.809 1.633c-0.245 0.105-0.404 0.346-0.404 0.613s0.159 0.508 0.404 0.613l9.333 4c0.168 0.072 0.358 0.072 0.525 0l9.333-4c0.245-0.105 0.404-0.346 0.404-0.613s-0.159-0.508-0.404-0.613l-3.809-1.633-1.692 0.725 3.547 1.52-7.641 3.275-7.641-3.275 3.547-1.52-1.692-0.725z"></path>
</symbol>
<symbol id="dashboard" viewBox="0 0 32 32">
<path fill="none" stroke="inherit" stroke-linejoin="miter" stroke-linecap="round" stroke-miterlimit="4" stroke-width="1.3333" d="M6.667 5.333h5.333c0.736 0 1.333 0.597 1.333 1.333v5.333c0 0.736-0.597 1.333-1.333 1.333h-5.333c-0.736 0-1.333-0.597-1.333-1.333v-5.333c0-0.736 0.597-1.333 1.333-1.333z"></path>
<path fill="none" stroke="inherit" stroke-linejoin="miter" stroke-linecap="round" stroke-miterlimit="4" stroke-width="1.3333" d="M6.667 18.667h5.333c0.736 0 1.333 0.597 1.333 1.333v5.333c0 0.736-0.597 1.333-1.333 1.333h-5.333c-0.736 0-1.333-0.597-1.333-1.333v-5.333c0-0.736 0.597-1.333 1.333-1.333z"></path>
<path fill="none" stroke="inherit" stroke-linejoin="miter" stroke-linecap="round" stroke-miterlimit="4" stroke-width="1.3333" d="M20 5.333h5.333c0.736 0 1.333 0.597 1.333 1.333v5.333c0 0.736-0.597 1.333-1.333 1.333h-5.333c-0.736 0-1.333-0.597-1.333-1.333v-5.333c0-0.736 0.597-1.333 1.333-1.333z"></path>
<path fill="none" stroke="inherit" stroke-linejoin="miter" stroke-linecap="round" stroke-miterlimit="4" stroke-width="1.3333" d="M20 18.667h5.333c0.736 0 1.333 0.597 1.333 1.333v5.333c0 0.736-0.597 1.333-1.333 1.333h-5.333c-0.736 0-1.333-0.597-1.333-1.333v-5.333c0-0.736 0.597-1.333 1.333-1.333z"></path>
</symbol>
<symbol id="game" viewBox="0 0 32 32">
<path fill="none" stroke="inherit" d="M18.667 18.667c0.736 0 1.333 0.597 1.333 1.333s-0.597 1.333-1.333 1.333c-0.736 0-1.333-0.597-1.333-1.333s0.597-1.333 1.333-1.333z"></path>
<path fill="none" stroke="inherit" stroke-linejoin="miter" stroke-linecap="round" stroke-miterlimit="4" stroke-width="1.3333" d="M13.333 18.667h-5.333"></path>
<path fill="none" stroke="inherit" stroke-linejoin="miter" stroke-linecap="round" stroke-miterlimit="4" stroke-width="1.3333" d="M10.667 16v5.333"></path>
<path fill="none" stroke="inherit" d="M22.667 16c0.736 0 1.333 0.597 1.333 1.333s-0.597 1.333-1.333 1.333c-0.736 0-1.333-0.597-1.333-1.333s0.597-1.333 1.333-1.333z"></path>
<path fill="none" stroke="inherit" stroke-linejoin="miter" stroke-linecap="round" stroke-miterlimit="4" stroke-width="1.3333" d="M18.667 10.667v0c0-0.556 0-0.834-0.046-1.078-0.16-0.849-0.721-1.568-1.506-1.929-0.226-0.104-0.496-0.171-1.035-0.306l-0.080-0.020c-0.615-0.154-0.922-0.231-1.177-0.356-0.731-0.36-1.258-1.034-1.43-1.831-0.060-0.278-0.060-0.595-0.060-1.228v-1.251"></path>
<path fill="none" stroke="inherit" stroke-linejoin="miter" stroke-linecap="butt" stroke-miterlimit="4" stroke-width="1.3333" d="M4 18.667c0-3.412 0-5.118 0.827-6.293 0.213-0.303 0.461-0.573 0.738-0.806 1.077-0.902 2.641-0.902 5.768-0.902h9.333c3.127 0 4.691 0 5.768 0.902 0.277 0.232 0.526 0.503 0.738 0.806 0.827 1.175 0.827 2.881 0.827 6.293s0 5.118-0.827 6.293c-0.213 0.303-0.461 0.573-0.738 0.805-1.077 0.902-2.641 0.902-5.768 0.902h-9.333c-3.127 0-4.691 0-5.768-0.902-0.277-0.232-0.526-0.503-0.738-0.805-0.827-1.175-0.827-2.881-0.827-6.293z"></path>
</symbol>
<symbol id="games" viewBox="0 0 33 32">
<path fill="#9b53f8" style="fill: var(--color8, #9b53f8)" d="M19.733 18.667c0.736 0 1.333 0.597 1.333 1.333s-0.597 1.333-1.333 1.333c-0.736 0-1.333-0.597-1.333-1.333s0.597-1.333 1.333-1.333z"></path>
<path fill="none" stroke="#9b53f8" style="stroke: var(--color8, #9b53f8)" stroke-linejoin="miter" stroke-linecap="round" stroke-miterlimit="4" stroke-width="1.3333" d="M14.4 18.667h-5.333"></path>
<path fill="none" stroke="#9b53f8" style="stroke: var(--color8, #9b53f8)" stroke-linejoin="miter" stroke-linecap="round" stroke-miterlimit="4" stroke-width="1.3333" d="M11.733 16v5.333"></path>
<path fill="#9b53f8" style="fill: var(--color8, #9b53f8)" d="M23.733 16c0.736 0 1.333 0.597 1.333 1.333s-0.597 1.333-1.333 1.333c-0.736 0-1.333-0.597-1.333-1.333s0.597-1.333 1.333-1.333z"></path>
<path fill="none" stroke="#9b53f8" style="stroke: var(--color8, #9b53f8)" stroke-linejoin="miter" stroke-linecap="round" stroke-miterlimit="4" stroke-width="1.3333" d="M19.733 10.667v0c0-0.556 0-0.834-0.046-1.078-0.16-0.849-0.721-1.568-1.506-1.929-0.226-0.104-0.496-0.171-1.035-0.306l-0.080-0.020c-0.615-0.154-0.922-0.231-1.177-0.356-0.731-0.36-1.258-1.034-1.43-1.831-0.060-0.278-0.060-0.595-0.060-1.228v-1.251"></path>
<path fill="none" stroke="#9b53f8" style="stroke: var(--color8, #9b53f8)" stroke-linejoin="miter" stroke-linecap="butt" stroke-miterlimit="4" stroke-width="1.3333" d="M5.067 18.667c0-3.412 0-5.118 0.827-6.293 0.213-0.303 0.461-0.573 0.738-0.806 1.077-0.902 2.641-0.902 5.768-0.902h9.333c3.127 0 4.691 0 5.768 0.902 0.277 0.232 0.526 0.503 0.738 0.806 0.827 1.175 0.827 2.881 0.827 6.293s0 5.118-0.827 6.293c-0.213 0.303-0.461 0.573-0.738 0.805-1.077 0.902-2.641 0.902-5.768 0.902h-9.333c-3.127 0-4.691 0-5.768-0.902-0.277-0.232-0.526-0.503-0.738-0.805-0.827-1.175-0.827-2.881-0.827-6.293z"></path>
</symbol>
<symbol id="info" viewBox="0 0 32 32">
<path fill="none" stroke="#7d869e" style="stroke: var(--color5, #7d869e)" stroke-linejoin="round" stroke-linecap="round" stroke-miterlimit="4" stroke-width="1.3333" d="M16 29.333c7.364 0 13.333-5.97 13.333-13.333s-5.97-13.333-13.333-13.333c-7.364 0-13.333 5.97-13.333 13.333s5.97 13.333 13.333 13.333z"></path>
<path fill="none" stroke="#7d869e" style="stroke: var(--color5, #7d869e)" stroke-linejoin="round" stroke-linecap="round" stroke-miterlimit="4" stroke-width="1.3333" d="M16 21.333v-5.333"></path>
<path fill="none" stroke="#7d869e" style="stroke: var(--color5, #7d869e)" stroke-linejoin="round" stroke-linecap="round" stroke-miterlimit="4" stroke-width="1.3333" d="M16 10.667h0.013"></path>
</symbol>
<symbol id="keyhole" viewBox="0 0 33 32">
<path fill="#f25d5d" style="fill: var(--color9, #f25d5d)" d="M19.193 14.667c0 0.53-0.158 1.048-0.454 1.488s-0.716 0.782-1.206 0.982v3.197c0 0.265-0.105 0.52-0.293 0.707s-0.442 0.293-0.707 0.293-0.52-0.105-0.707-0.293c-0.188-0.187-0.293-0.442-0.293-0.707v-3.192c-0.449-0.18-0.841-0.48-1.133-0.866s-0.474-0.844-0.525-1.326c-0.051-0.481 0.029-0.968 0.233-1.407s0.524-0.814 0.925-1.086 0.868-0.428 1.352-0.454c0.483-0.026 0.965 0.081 1.392 0.308s0.785 0.566 1.035 0.981c0.249 0.415 0.381 0.89 0.381 1.374v0zM5.533 6.667c-0.265 0-0.52 0.105-0.707 0.293s-0.293 0.442-0.293 0.707v7c0 6.668 3.944 11.568 11.633 14.597 0.236 0.093 0.498 0.093 0.733 0 7.689-3.029 11.633-7.931 11.633-14.597v-7c0-0.265-0.105-0.52-0.293-0.707s-0.442-0.293-0.707-0.293c-3.551 0-7.011-1.257-10.4-3.8-0.173-0.13-0.384-0.2-0.6-0.2s-0.427 0.070-0.6 0.2c-3.389 2.543-6.849 3.8-10.4 3.8zM6.533 14.667v-6.029c3.436-0.203 6.773-1.453 10-3.733 3.227 2.28 6.564 3.531 10 3.733v6.029c0 5.675-3.271 9.839-10 12.589-6.729-2.751-10-6.915-10-12.589z"></path>
</symbol>
<symbol id="product" viewBox="0 0 32 32">
<path fill="none" stroke="inherit" stroke-linejoin="miter" stroke-linecap="butt" stroke-miterlimit="4" stroke-width="1.3333" d="M5.333 12.876c0-1.090 0-1.635 0.203-2.125s0.588-0.875 1.359-1.646l0.876-0.876c0.771-0.771 1.156-1.156 1.646-1.359s1.035-0.203 2.125-0.203h8.915c1.090 0 1.635 0 2.125 0.203s0.875 0.588 1.646 1.359l0.876 0.876c0.771 0.771 1.156 1.156 1.359 1.646s0.203 1.035 0.203 2.125v8.458c0 2.514 0 3.771-0.781 4.552s-2.038 0.781-4.552 0.781h-10.667c-2.514 0-3.771 0-4.552-0.781s-0.781-2.038-0.781-4.552v-8.458z"></path>
<path fill="none" stroke="inherit" stroke-linejoin="miter" stroke-linecap="round" stroke-miterlimit="4" stroke-width="1.3333" d="M5.333 13.333h21.333"></path>
<path fill="none" d="M19.777 13.333h-7.556c-0.314 0-0.471 0-0.569 0.098s-0.098 0.255-0.098 0.569v4.222c0 1.020 0 1.53 0.132 1.804 0.294 0.612 1.001 0.905 1.642 0.68 0.287-0.101 0.648-0.461 1.369-1.182 0.334-0.334 0.501-0.501 0.679-0.595 0.39-0.206 0.857-0.206 1.247 0 0.177 0.094 0.345 0.261 0.679 0.595 0.721 0.721 1.082 1.082 1.369 1.182 0.641 0.224 1.348-0.069 1.642-0.68 0.132-0.274 0.132-0.784 0.132-1.804v-4.222c0-0.314 0-0.471-0.098-0.569s-0.255-0.098-0.569-0.098z"></path>
</symbol>
<symbol id="setting" viewBox="0 0 33 32">
<path fill="#4998ee" style="fill: var(--color10, #4998ee)" d="M18.659 6.325h0.667v-0.028l-0.002-0.028-0.664 0.057zM18.659 6.325l0.664-0.057-0.001-0.010-0.663 0.066zM18.659 6.325h-0.667v0.033l0.003 0.033 0.663-0.066zM18.82 7.368v0zM20.565 8.091v0zM21.416 7.467v0zM21.889 7.114v0zM23.251 7.182v0zM23.686 7.58v0zM24.687 8.581l-0.471 0.471 0.008 0.008 0.008 0.007 0.456-0.486zM24.687 8.581l0.471-0.471-0.008-0.008-0.008-0.007-0.456 0.486zM25.084 9.016v0zM25.152 10.378v0zM24.8 10.85l-0.516-0.422-0.005 0.006 0.521 0.416zM24.8 10.85l0.516 0.422 0.005-0.006-0.521-0.416zM24.176 11.701v0zM24.899 13.447v0zM25.942 13.607v0zM26.525 13.692v0zM27.441 14.704v0zM27.441 17.296v0zM26.525 18.308v0zM25.942 18.392v0zM25.942 18.392v0zM24.899 18.553v0zM24.176 20.299v0zM24.8 21.149v0zM25.152 21.621v0zM25.084 22.984v0zM24.687 23.419v0zM23.686 24.419v0zM23.686 24.419v0zM23.251 24.817v0zM21.889 24.885v0zM21.416 24.533l0.422-0.516-0.025-0.021-0.027-0.018-0.37 0.555zM21.416 24.533l-0.422 0.516 0.025 0.021 0.027 0.018 0.37-0.555zM20.565 23.909v0zM18.82 24.632v0zM18.659 25.675v0zM18.575 26.259v0zM17.563 27.174v0zM14.97 27.174v0zM13.959 26.259v0zM13.874 25.675v0zM13.713 24.632v0zM11.968 23.909v0zM11.117 24.533v0zM10.645 24.886v0zM9.282 24.818v0zM8.847 24.42v0zM7.847 23.419v0zM7.449 22.984v0zM7.381 21.622v0zM7.734 21.15l-0.502-0.439-0.007 0.008-0.007 0.009 0.516 0.422zM7.734 21.15l0.502 0.439 0.007-0.008 0.007-0.009-0.516-0.422zM8.357 20.298v0zM7.635 18.553v0zM6.592 18.392v0zM6.008 18.308v0zM5.093 17.296v0zM5.067 16.707v0zM5.067 15.293v0zM5.093 14.703v0zM6.008 13.692v0zM6.592 13.607v0zM7.635 13.447v0zM8.358 11.702v0zM7.734 10.85l-0.533 0.4 0.008 0.011 0.009 0.011 0.516-0.422zM7.734 10.85l0.533-0.4-0.008-0.011-0.009-0.011-0.516 0.422zM7.381 10.377v0zM7.449 9.015v0zM9.282 7.182v0zM10.645 7.114v0zM11.117 7.466v0zM11.968 8.090v0zM13.714 7.367v0zM13.874 6.325l-0.658-0.11-0.004 0.022-0.002 0.022 0.663 0.066zM13.874 6.325l0.658 0.11 0.004-0.022 0.002-0.022-0.663-0.066zM13.959 5.742v0zM14.97 4.826v0zM17.563 4.826v0zM18.575 5.742v0zM19.323 6.268v0zM19.326 6.325v0zM19.436 7.114c-0.004-0.011-0.021-0.060-0.043-0.214-0.021-0.149-0.041-0.348-0.071-0.642l-1.327 0.133c0.028 0.282 0.051 0.514 0.077 0.697 0.025 0.179 0.060 0.364 0.13 0.534l1.233-0.508zM20.309 7.475c-0.341 0.142-0.732-0.020-0.873-0.361l-1.233 0.508c0.422 1.024 1.596 1.51 2.618 1.084l-0.513-1.231zM20.994 6.951c-0.228 0.187-0.383 0.313-0.504 0.404-0.124 0.093-0.171 0.116-0.182 0.121l0.513 1.231c0.17-0.071 0.325-0.177 0.47-0.285 0.148-0.111 0.328-0.259 0.547-0.438l-0.844-1.032zM21.577 6.525c-0.191 0.101-0.37 0.252-0.582 0.426l0.844 1.032c0.261-0.213 0.318-0.256 0.362-0.279l-0.624-1.178zM23.62 6.627c-0.611-0.406-1.395-0.445-2.044-0.102l0.624 1.178c0.216-0.114 0.478-0.101 0.681 0.034l0.738-1.11zM24.157 7.109c-0.194-0.194-0.357-0.362-0.537-0.482l-0.738 1.11c0.042 0.028 0.094 0.076 0.333 0.314l0.943-0.943zM25.158 8.109l-1.001-1.001-0.943 0.943 1.001 1.001 0.943-0.943zM25.143 8.094v0 0zM25.639 8.646c-0.119-0.18-0.287-0.343-0.481-0.537l-0.943 0.943c0.238 0.238 0.286 0.291 0.314 0.333l1.11-0.738zM25.741 10.69c0.343-0.648 0.304-1.433-0.102-2.044l-1.11 0.738c0.135 0.204 0.149 0.465 0.034 0.681l1.178 0.624zM25.316 11.273c0.174-0.212 0.325-0.392 0.426-0.582l-1.178-0.624c-0.023 0.044-0.066 0.101-0.279 0.362l1.032 0.844zM25.32 11.267v0zM24.791 11.958c0.005-0.011 0.028-0.058 0.121-0.182 0.090-0.121 0.217-0.275 0.404-0.504l-1.032-0.844c-0.179 0.219-0.327 0.399-0.438 0.547-0.109 0.145-0.215 0.3-0.285 0.469l1.231 0.513zM25.153 12.83c-0.341-0.141-0.503-0.532-0.361-0.873l-1.231-0.513c-0.426 1.022 0.060 2.196 1.085 2.618l0.508-1.233zM26.008 12.944c-0.293-0.029-0.492-0.049-0.642-0.071-0.153-0.022-0.203-0.039-0.214-0.043l-0.508 1.233c0.17 0.070 0.354 0.105 0.534 0.13 0.183 0.026 0.415 0.049 0.697 0.077l0.133-1.327zM26.721 13.055c-0.206-0.063-0.44-0.083-0.713-0.111l-0.133 1.327c0.335 0.034 0.406 0.044 0.454 0.059l0.392-1.274zM28.094 14.572c-0.145-0.719-0.672-1.302-1.373-1.517l-0.392 1.274c0.234 0.072 0.409 0.266 0.458 0.506l1.307-0.263zM28.133 15.292c0-0.275 0.003-0.509-0.039-0.72l-1.307 0.263c0.010 0.049 0.013 0.12 0.013 0.457h1.333zM28.133 16.708v-1.415h-1.333v1.415h1.333zM28.094 17.428c0.043-0.211 0.039-0.446 0.039-0.72h-1.333c0 0.337-0.003 0.408-0.013 0.457l1.307 0.263zM26.721 18.945c0.701-0.216 1.228-0.798 1.373-1.517l-1.307-0.263c-0.048 0.24-0.224 0.434-0.458 0.506l0.392 1.275zM26.008 19.056c0.273-0.027 0.507-0.047 0.713-0.111l-0.392-1.275c-0.048 0.015-0.118 0.025-0.454 0.059l0.133 1.327zM26.008 19.056v0 0zM25.153 19.169c0.011-0.004 0.060-0.021 0.214-0.043 0.149-0.021 0.348-0.041 0.641-0.071l-0.133-1.327c-0.281 0.028-0.513 0.051-0.697 0.077-0.179 0.025-0.364 0.060-0.533 0.13l0.508 1.233zM24.792 20.042c-0.142-0.341 0.020-0.732 0.362-0.873l-0.508-1.233c-1.024 0.422-1.511 1.596-1.085 2.619l1.231-0.513zM25.316 20.727c-0.187-0.228-0.313-0.383-0.403-0.503-0.093-0.124-0.116-0.171-0.121-0.181l-1.231 0.513c0.071 0.169 0.177 0.325 0.285 0.469 0.111 0.148 0.259 0.328 0.438 0.547l1.032-0.844zM25.741 21.309c-0.101-0.191-0.252-0.37-0.426-0.582l-1.032 0.844c0.213 0.261 0.256 0.318 0.279 0.362l1.178-0.624zM25.639 23.353c0.406-0.611 0.446-1.396 0.102-2.044l-1.178 0.624c0.115 0.216 0.102 0.478-0.034 0.681l1.11 0.738zM25.158 23.89c0.194-0.194 0.362-0.357 0.481-0.537l-1.11-0.738c-0.028 0.041-0.076 0.094-0.314 0.332l0.943 0.943zM24.157 24.891l1.001-1.001-0.943-0.943-1.001 1.001 0.943 0.943zM24.157 24.891v0 0zM23.62 25.372c0.18-0.119 0.343-0.287 0.537-0.482l-0.943-0.943c-0.238 0.238-0.291 0.287-0.333 0.314l0.738 1.11zM21.577 25.474c0.648 0.343 1.433 0.304 2.044-0.102l-0.738-1.11c-0.204 0.135-0.465 0.148-0.681 0.034l-0.624 1.178zM20.994 25.049c0.212 0.174 0.392 0.325 0.582 0.426l0.624-1.178c-0.044-0.023-0.101-0.066-0.362-0.279l-0.844 1.032zM21.047 25.087v0 0zM20.309 24.524c0.011 0.004 0.058 0.028 0.181 0.121 0.121 0.090 0.276 0.217 0.504 0.404l0.844-1.032c-0.219-0.179-0.399-0.327-0.547-0.438-0.145-0.109-0.3-0.215-0.469-0.285l-0.513 1.231zM19.436 24.886c0.141-0.341 0.532-0.503 0.873-0.361l0.513-1.231c-1.022-0.426-2.196 0.060-2.618 1.085l1.233 0.508zM19.323 25.741c0.029-0.293 0.049-0.492 0.071-0.642 0.022-0.153 0.039-0.203 0.043-0.214l-1.233-0.508c-0.070 0.17-0.105 0.354-0.13 0.534-0.026 0.183-0.049 0.415-0.077 0.697l1.327 0.133zM19.212 26.455c0.063-0.206 0.083-0.44 0.111-0.713l-1.327-0.133c-0.034 0.336-0.044 0.406-0.059 0.454l1.275 0.392zM17.695 27.827c0.719-0.145 1.301-0.672 1.517-1.373l-1.275-0.392c-0.072 0.234-0.266 0.409-0.506 0.458l0.263 1.307zM16.974 27.867c0.275 0 0.509 0.003 0.721-0.039l-0.263-1.307c-0.049 0.010-0.12 0.013-0.457 0.013v1.333zM15.559 27.867h1.415v-1.333h-1.415v1.333zM14.839 27.827c0.211 0.043 0.446 0.039 0.72 0.039v-1.333c-0.337 0-0.408-0.003-0.457-0.013l-0.263 1.307zM13.322 26.454c0.216 0.701 0.798 1.228 1.517 1.373l0.263-1.307c-0.24-0.048-0.434-0.224-0.506-0.458l-1.274 0.392zM13.211 25.741c0.027 0.273 0.047 0.507 0.111 0.713l1.274-0.392c-0.015-0.048-0.025-0.118-0.059-0.454l-1.327 0.133zM13.097 24.886c0.004 0.011 0.021 0.060 0.043 0.214 0.021 0.149 0.041 0.348 0.071 0.642l1.327-0.133c-0.028-0.281-0.051-0.513-0.077-0.697-0.026-0.179-0.060-0.364-0.13-0.534l-1.233 0.508zM12.224 24.525c0.341-0.142 0.732 0.020 0.873 0.361l1.233-0.508c-0.422-1.024-1.596-1.51-2.618-1.084l0.513 1.231zM11.539 25.049c0.228-0.187 0.383-0.313 0.504-0.404 0.124-0.093 0.171-0.116 0.182-0.121l-0.513-1.231c-0.17 0.071-0.325 0.177-0.47 0.285-0.148 0.111-0.328 0.259-0.547 0.438l0.844 1.032zM10.957 25.475c0.191-0.101 0.37-0.252 0.582-0.426l-0.844-1.032c-0.261 0.213-0.318 0.256-0.362 0.279l0.624 1.178zM8.913 25.373c0.611 0.406 1.395 0.445 2.044 0.102l-0.624-1.178c-0.216 0.114-0.478 0.101-0.681-0.034l-0.738 1.11zM8.376 24.891c0.194 0.194 0.357 0.362 0.537 0.482l0.738-1.11c-0.042-0.028-0.094-0.076-0.333-0.314l-0.943 0.943zM7.375 23.891l1.001 1.001 0.943-0.943-1.001-1.001-0.943 0.943zM6.894 23.353c0.119 0.18 0.288 0.343 0.482 0.537l0.943-0.943c-0.238-0.238-0.287-0.291-0.314-0.333l-1.11 0.738zM6.792 21.31c-0.343 0.648-0.304 1.433 0.102 2.043l1.11-0.738c-0.135-0.204-0.148-0.465-0.034-0.681l-1.178-0.624zM7.218 20.727c-0.174 0.213-0.325 0.392-0.426 0.583l1.178 0.624c0.023-0.044 0.066-0.101 0.279-0.362l-1.032-0.844zM7.232 20.711v0 0zM7.742 20.042c-0.005 0.011-0.028 0.058-0.121 0.182-0.090 0.121-0.217 0.275-0.404 0.504l1.032 0.844c0.179-0.219 0.327-0.399 0.438-0.548 0.109-0.145 0.215-0.3 0.285-0.469l-1.231-0.513zM7.381 19.17c0.341 0.141 0.503 0.532 0.361 0.873l1.231 0.513c0.426-1.022-0.060-2.196-1.084-2.618l-0.508 1.233zM6.525 19.056c0.293 0.029 0.492 0.049 0.642 0.071 0.153 0.022 0.203 0.039 0.214 0.043l0.508-1.233c-0.17-0.070-0.354-0.105-0.534-0.13-0.183-0.026-0.415-0.049-0.697-0.077l-0.133 1.327zM5.812 18.945c0.206 0.063 0.44 0.083 0.713 0.111l0.133-1.327c-0.335-0.033-0.406-0.044-0.454-0.059l-0.392 1.275zM4.439 17.428c0.145 0.719 0.672 1.302 1.373 1.517l0.392-1.274c-0.234-0.072-0.409-0.266-0.458-0.506l-1.307 0.263zM4.4 16.707c0 0.275-0.003 0.509 0.039 0.72l1.307-0.263c-0.010-0.049-0.013-0.12-0.013-0.457h-1.333zM4.4 15.293v1.415h1.333v-1.415h-1.333zM4.439 14.572c-0.043 0.212-0.039 0.446-0.039 0.721h1.333c0-0.337 0.003-0.409 0.013-0.457l-1.307-0.263zM5.812 13.055c-0.701 0.216-1.228 0.798-1.373 1.517l1.307 0.263c0.048-0.24 0.224-0.434 0.458-0.506l-0.392-1.274zM6.525 12.944c-0.273 0.027-0.507 0.047-0.713 0.111l0.392 1.274c0.048-0.015 0.118-0.025 0.454-0.059l-0.133-1.327zM7.381 12.83c-0.011 0.004-0.060 0.021-0.214 0.043-0.149 0.021-0.348 0.041-0.642 0.071l0.133 1.327c0.282-0.028 0.514-0.051 0.697-0.077 0.179-0.026 0.364-0.060 0.534-0.13l-0.508-1.233zM7.742 11.958c0.142 0.341-0.020 0.732-0.361 0.873l0.508 1.233c1.024-0.422 1.51-1.595 1.084-2.618l-1.231 0.512zM7.218 11.272c0.187 0.228 0.313 0.383 0.404 0.504 0.093 0.124 0.116 0.171 0.121 0.182l1.231-0.512c-0.071-0.17-0.177-0.325-0.285-0.47-0.111-0.148-0.259-0.329-0.438-0.548l-1.032 0.844zM7.2 11.25v0 0zM6.792 10.689c0.101 0.191 0.252 0.37 0.426 0.583l1.032-0.844c-0.214-0.261-0.256-0.318-0.28-0.362l-1.178 0.624zM6.894 8.646c-0.406 0.611-0.445 1.395-0.102 2.043l1.178-0.624c-0.114-0.216-0.101-0.477 0.034-0.681l-1.11-0.738zM7.375 8.109c-0.194 0.194-0.362 0.358-0.482 0.537l1.11 0.738c0.028-0.042 0.076-0.094 0.314-0.333l-0.943-0.943zM8.376 7.108l-1.001 1.001 0.943 0.943 1.001-1.001-0.943-0.943zM8.913 6.627c-0.18 0.119-0.343 0.287-0.537 0.482l0.943 0.943c0.238-0.238 0.291-0.286 0.333-0.314l-0.738-1.11zM10.957 6.525c-0.648-0.343-1.433-0.304-2.044 0.102l0.738 1.11c0.204-0.135 0.465-0.148 0.681-0.034l0.624-1.178zM11.539 6.95c-0.212-0.174-0.392-0.325-0.583-0.426l-0.624 1.178c0.044 0.023 0.101 0.066 0.362 0.28l0.844-1.032zM12.224 7.475c-0.011-0.005-0.058-0.028-0.182-0.121-0.12-0.090-0.275-0.217-0.504-0.404l-0.844 1.032c0.219 0.179 0.399 0.327 0.547 0.438 0.145 0.109 0.3 0.215 0.469 0.285l0.513-1.231zM13.097 7.113c-0.141 0.341-0.532 0.503-0.873 0.362l-0.513 1.231c1.023 0.426 2.197-0.060 2.618-1.085l-1.233-0.508zM13.211 6.258c-0.029 0.293-0.049 0.492-0.071 0.641-0.022 0.153-0.039 0.203-0.043 0.214l1.233 0.508c0.070-0.17 0.105-0.354 0.13-0.533 0.026-0.183 0.049-0.415 0.077-0.697l-1.327-0.133zM13.217 6.215v0 0zM13.322 5.546c-0.063 0.206-0.083 0.44-0.111 0.713l1.327 0.133c0.033-0.335 0.044-0.406 0.059-0.454l-1.275-0.392zM14.839 4.173c-0.719 0.145-1.302 0.672-1.517 1.373l1.275 0.392c0.072-0.234 0.266-0.409 0.506-0.458l-0.263-1.307zM15.559 4.133c-0.274 0-0.509-0.003-0.72 0.039l0.263 1.307c0.049-0.010 0.12-0.013 0.457-0.013v-1.333zM16.974 4.133h-1.415v1.333h1.415v-1.333zM17.695 4.173c-0.212-0.043-0.446-0.039-0.72-0.039v1.333c0.337 0 0.408 0.003 0.457 0.013l0.263-1.307zM19.212 5.546c-0.216-0.701-0.798-1.228-1.517-1.373l-0.263 1.307c0.24 0.048 0.434 0.224 0.506 0.458l1.274-0.392zM19.323 6.258c-0.027-0.273-0.047-0.507-0.111-0.713l-1.274 0.392c0.015 0.048 0.025 0.118 0.059 0.454l1.327-0.133zM20.080 16c0 2.106-1.707 3.813-3.813 3.813v1.333c2.843 0 5.147-2.304 5.147-5.147h-1.333zM16.267 12.187c2.106 0 3.813 1.707 3.813 3.813h1.333c0-2.842-2.304-5.147-5.147-5.147v1.333zM12.453 16c0-2.106 1.707-3.813 3.813-3.813v-1.333c-2.842 0-5.147 2.304-5.147 5.147h1.333zM16.267 19.813c-2.106 0-3.813-1.707-3.813-3.813h-1.333c0 2.842 2.304 5.147 5.147 5.147v-1.333z"></path>
</symbol>
<symbol id="settings" viewBox="0 0 32 32">
<path fill="none" stroke="inherit" stroke-linejoin="miter" stroke-linecap="round" stroke-miterlimit="4" stroke-width="1.3333" d="M16 9.333h10.667"></path>
<path fill="none" stroke="inherit" stroke-linejoin="miter" stroke-linecap="round" stroke-miterlimit="4" stroke-width="1.3333" d="M5.333 9.333h5.333"></path>
<path fill="none" stroke="inherit" stroke-linejoin="miter" stroke-linecap="round" stroke-miterlimit="4" stroke-width="1.3333" d="M22.667 22.667h4"></path>
<path fill="none" stroke="inherit" stroke-linejoin="miter" stroke-linecap="round" stroke-miterlimit="4" stroke-width="1.3333" d="M5.333 22.667h10.667"></path>
<path fill="none" stroke="inherit" stroke-linejoin="miter" stroke-linecap="round" stroke-miterlimit="4" stroke-width="1.3333" d="M13.333 12c-1.473 0-2.667-1.194-2.667-2.667s1.194-2.667 2.667-2.667c1.473 0 2.667 1.194 2.667 2.667s-1.194 2.667-2.667 2.667z"></path>
<path fill="none" stroke="inherit" stroke-linejoin="miter" stroke-linecap="round" stroke-miterlimit="4" stroke-width="1.3333" d="M20 25.333c-1.473 0-2.667-1.194-2.667-2.667s1.194-2.667 2.667-2.667c1.473 0 2.667 1.194 2.667 2.667s-1.194 2.667-2.667 2.667z"></path>
</symbol>
<symbol id="share" viewBox="0 0 33 32">
<path fill="none" stroke="#f4a732" style="stroke: var(--color11, #f4a732)" stroke-linejoin="miter" stroke-linecap="butt" stroke-miterlimit="4" stroke-width="1.3333" d="M12.8 8c0 0.525 0.103 1.045 0.304 1.531s0.496 0.926 0.867 1.298c0.371 0.371 0.812 0.666 1.298 0.867s1.005 0.304 1.531 0.304 1.045-0.103 1.531-0.304c0.485-0.201 0.926-0.496 1.298-0.867s0.666-0.812 0.867-1.298c0.201-0.485 0.305-1.005 0.305-1.531s-0.103-1.045-0.305-1.531c-0.201-0.485-0.496-0.926-0.867-1.298s-0.812-0.666-1.298-0.867c-0.485-0.201-1.005-0.304-1.531-0.304s-1.045 0.103-1.531 0.304c-0.485 0.201-0.926 0.496-1.298 0.867s-0.666 0.812-0.867 1.298c-0.201 0.485-0.304 1.005-0.304 1.531v0z"></path>
<path fill="none" stroke="#f4a732" style="stroke: var(--color11, #f4a732)" stroke-linejoin="miter" stroke-linecap="butt" stroke-miterlimit="4" stroke-width="1.3333" d="M6.717 18.535c-0.455 0.263-0.854 0.612-1.173 1.029s-0.554 0.892-0.69 1.4c-0.136 0.507-0.171 1.037-0.102 1.557s0.239 1.023 0.502 1.478c0.263 0.455 0.612 0.854 1.029 1.173s0.892 0.554 1.4 0.69c0.507 0.136 1.037 0.171 1.557 0.102s1.023-0.239 1.478-0.502c0.455-0.263 0.854-0.612 1.173-1.029s0.554-0.892 0.69-1.4c0.136-0.507 0.171-1.037 0.102-1.557s-0.239-1.023-0.502-1.478c-0.263-0.455-0.612-0.854-1.029-1.173s-0.892-0.554-1.4-0.69-1.037-0.171-1.557-0.102c-0.521 0.069-1.023 0.239-1.478 0.502v0z"></path>
<path fill="none" stroke="#f4a732" style="stroke: var(--color11, #f4a732)" stroke-linejoin="miter" stroke-linecap="butt" stroke-miterlimit="4" stroke-width="1.3333" d="M26.883 18.535c0.455 0.263 0.854 0.612 1.173 1.029s0.554 0.892 0.69 1.4c0.136 0.507 0.171 1.037 0.102 1.557s-0.239 1.023-0.502 1.478c-0.263 0.455-0.612 0.854-1.029 1.173s-0.892 0.554-1.4 0.69c-0.507 0.136-1.037 0.171-1.557 0.102s-1.023-0.239-1.478-0.502c-0.455-0.263-0.854-0.612-1.173-1.029s-0.554-0.892-0.69-1.4c-0.136-0.507-0.171-1.037-0.102-1.557s0.239-1.023 0.502-1.478 0.612-0.854 1.029-1.173c0.417-0.32 0.892-0.554 1.4-0.69s1.037-0.171 1.557-0.102c0.521 0.069 1.023 0.239 1.478 0.502v0z"></path>
<path fill="#f4a732" style="fill: var(--color11, #f4a732)" d="M12.804 8.167c-0.002-0.055-0.003-0.111-0.003-0.167 0-0.463 0.080-0.922 0.237-1.357-0.193 0.068-0.385 0.141-0.574 0.22-1.375 0.57-2.624 1.404-3.677 2.457s-1.887 2.302-2.457 3.677c-0.57 1.375-0.863 2.849-0.863 4.337 0 0.702 0.065 1.4 0.194 2.086 0.298-0.353 0.656-0.652 1.057-0.884 0.048-0.028 0.097-0.055 0.146-0.080-0.042-0.372-0.063-0.746-0.063-1.122 0-1.313 0.259-2.614 0.761-3.827s1.239-2.316 2.168-3.244c0.885-0.885 1.928-1.596 3.074-2.096zM20.797 8.167c1.147 0.5 2.189 1.21 3.075 2.096 0.929 0.929 1.665 2.031 2.168 3.244s0.761 2.514 0.761 3.827c0 0.376-0.021 0.75-0.063 1.122 0.049 0.026 0.098 0.053 0.146 0.080 0.401 0.232 0.759 0.531 1.057 0.884 0.129-0.686 0.194-1.385 0.194-2.086 0-1.488-0.293-2.962-0.863-4.337s-1.404-2.624-2.457-3.677-2.302-1.887-3.677-2.457c-0.19-0.079-0.381-0.152-0.574-0.22 0.157 0.435 0.237 0.894 0.237 1.357 0 0.056-0.001 0.111-0.003 0.167zM24.177 25.937c-0.455-0.082-0.893-0.242-1.295-0.473-0.048-0.028-0.095-0.057-0.142-0.086-0.652 0.481-1.362 0.883-2.114 1.195-1.213 0.503-2.514 0.761-3.827 0.761s-2.614-0.259-3.827-0.761c-0.752-0.312-1.462-0.713-2.114-1.195-0.047 0.030-0.094 0.058-0.142 0.086-0.401 0.232-0.839 0.392-1.294 0.473 0.907 0.778 1.933 1.409 3.040 1.867 1.375 0.569 2.849 0.863 4.337 0.863s2.962-0.293 4.337-0.863c1.107-0.459 2.133-1.089 3.040-1.867z"></path>
</symbol>
<symbol id="user_light" viewBox="0 0 32 32">
<path fill="none" stroke="#fff" style="stroke: var(--color12, #fff)" stroke-linejoin="miter" stroke-linecap="round" stroke-miterlimit="4" stroke-width="1.3333" d="M26.303 27.263c-0.608-1.701-1.947-3.204-3.81-4.276s-4.145-1.653-6.493-1.653-4.631 0.581-6.493 1.653c-1.863 1.072-3.202 2.575-3.81 4.276"></path>
<path fill="none" stroke="#fff" style="stroke: var(--color12, #fff)" stroke-linejoin="miter" stroke-linecap="round" stroke-miterlimit="4" stroke-width="1.3333" d="M21.333 10.667c0 2.946-2.388 5.333-5.333 5.333s-5.333-2.388-5.333-5.333c0-2.946 2.388-5.333 5.333-5.333s5.333 2.388 5.333 5.333z"></path>
</symbol>
<symbol id="user" viewBox="0 0 32 32">
<path fill="#3cdc86" style="fill: var(--color13, #3cdc86)" d="M28.987 26.5c-1.866-3.214-4.853-5.627-8.387-6.775 1.694-1.008 3.011-2.544 3.748-4.372s0.853-3.848 0.33-5.749c-0.522-1.901-1.655-3.577-3.222-4.772s-3.485-1.842-5.456-1.842-3.888 0.647-5.456 1.842c-1.568 1.195-2.7 2.872-3.222 4.772s-0.406 3.921 0.33 5.749c0.737 1.828 2.053 3.364 3.748 4.372-3.535 1.148-6.522 3.561-8.387 6.775-0.078 0.114-0.132 0.242-0.158 0.377s-0.024 0.275 0.006 0.409 0.088 0.261 0.17 0.373c0.082 0.111 0.185 0.204 0.305 0.273s0.252 0.113 0.389 0.129c0.137 0.015 0.276 0.003 0.408-0.038s0.254-0.108 0.358-0.198 0.189-0.201 0.249-0.325c1.143-1.975 2.785-3.615 4.762-4.755s4.219-1.74 6.5-1.74 4.524 0.6 6.501 1.74c1.977 1.14 3.619 2.78 4.762 4.755 0.060 0.124 0.144 0.235 0.249 0.325s0.226 0.157 0.358 0.198c0.132 0.041 0.271 0.053 0.408 0.038s0.269-0.059 0.389-0.129c0.119-0.069 0.223-0.162 0.305-0.273s0.139-0.238 0.17-0.373c0.030-0.135 0.032-0.274 0.006-0.409s-0.080-0.264-0.158-0.377v0zM9 12c0-1.384 0.411-2.738 1.18-3.889s1.862-2.048 3.142-2.578c1.279-0.53 2.686-0.668 4.044-0.398s2.605 0.937 3.584 1.916c0.979 0.979 1.646 2.226 1.916 3.584s0.131 2.765-0.398 4.044c-0.53 1.279-1.427 2.372-2.578 3.141s-2.504 1.18-3.889 1.18c-1.857 0-3.637-0.737-4.95-2.050s-2.050-3.093-2.050-4.95z"></path>
</symbol>
<symbol id="wear-tear" viewBox="0 0 32 32">
<path fill="#7d869e" style="fill: var(--color5, #7d869e)" d="M13.136 8.694c-1.923-1.242-4.647-0.955-6.207 1.056l-0.381 0.491c-1.817 2.341-1.554 5.68 0.606 7.709l8.568 8.048c0.137 0.129 0.218 0.204 0.279 0.254 0.061-0.050 0.142-0.125 0.279-0.254l8.568-8.048c2.16-2.029 2.422-5.368 0.606-7.709l-0.381-0.491c-1.657-2.136-4.625-2.327-6.556-0.807l-0.825-1.047c2.476-1.95 6.295-1.719 8.434 1.037l0.381 0.491c2.238 2.885 1.915 6.999-0.746 9.499l-8.586 8.065c-0.132 0.124-0.263 0.248-0.385 0.341-0.136 0.105-0.312 0.215-0.541 0.26v0c-0.163 0.032-0.331 0.032-0.494 0v0c-0.229-0.045-0.405-0.155-0.541-0.26-0.122-0.094-0.253-0.218-0.385-0.341l-0.018-0.017-8.568-8.048c-2.661-2.5-2.984-6.614-0.746-9.499l0.381-0.491c2.199-2.835 6.176-2.998 8.642-0.865l0.482 0.417-1.529 1.938c-0.45 0.57-0.742 0.943-0.918 1.244-0.166 0.285-0.166 0.404-0.153 0.478s0.056 0.185 0.313 0.393c0.271 0.219 0.677 0.465 1.3 0.838l1.203 0.722c0.53 0.318 0.985 0.591 1.318 0.858 0.356 0.286 0.656 0.629 0.765 1.114s-0.015 0.924-0.214 1.335c-0.186 0.384-0.481 0.826-0.823 1.34l-0.938 1.407-1.109-0.74 0.913-1.37c0.375-0.562 0.617-0.928 0.759-1.22 0.133-0.275 0.129-0.388 0.113-0.46s-0.060-0.176-0.299-0.367c-0.253-0.203-0.628-0.43-1.208-0.778l-1.205-0.723c-0.571-0.342-1.059-0.635-1.411-0.92-0.376-0.304-0.691-0.671-0.786-1.189s0.069-0.973 0.313-1.391c0.229-0.392 0.581-0.838 0.993-1.361l0.741-0.939z"></path>
</symbol>
<symbol id="search" viewBox="0 0 32 32">
<path d="M31.008 27.231l-7.58-6.447c-0.784-0.705-1.622-1.029-2.299-0.998 1.789-2.096 2.87-4.815 2.87-7.787 0-6.627-5.373-12-12-12s-12 5.373-12 12 5.373 12 12 12c2.972 0 5.691-1.081 7.787-2.87-0.031 0.677 0.293 1.515 0.998 2.299l6.447 7.58c1.104 1.226 2.907 1.33 4.007 0.23s0.997-2.903-0.23-4.007zM12 20c-4.418 0-8-3.582-8-8s3.582-8 8-8 8 3.582 8 8-3.582 8-8 8z"></path>
</symbol>
<symbol id="selected" viewBox="0 0 32 32">
<path fill="#8941ff" style="fill: var(--color1, #8941ff)" d="M20.8 4.799h-9.6c-1.471 0-2.927 0.29-4.286 0.853s-2.594 1.388-3.634 2.428c-1.040 1.040-1.865 2.275-2.428 3.634s-0.853 2.815-0.853 4.286c0 1.471 0.29 2.927 0.853 4.286s1.388 2.593 2.428 3.634c1.040 1.040 2.275 1.865 3.634 2.428s2.815 0.853 4.286 0.853h9.6c1.471 0 2.927-0.29 4.286-0.853s2.593-1.388 3.634-2.428c1.040-1.040 1.865-2.275 2.428-3.634s0.853-2.815 0.853-4.286c0-1.471-0.29-2.927-0.853-4.286s-1.388-2.594-2.428-3.634c-1.040-1.040-2.275-1.865-3.634-2.428s-2.815-0.853-4.286-0.853zM20.8 23.999c-2.122-0-4.157-0.843-5.657-2.344s-2.343-3.536-2.343-5.658 0.843-4.157 2.344-5.657c1.501-1.5 3.536-2.343 5.658-2.343 1.051 0 2.091 0.207 3.062 0.609s1.853 0.992 2.595 1.735c0.743 0.743 1.332 1.625 1.734 2.596s0.609 2.011 0.609 3.062c-0 1.051-0.207 2.091-0.609 3.062s-0.992 1.853-1.735 2.596c-0.743 0.743-1.625 1.332-2.596 1.734s-2.011 0.609-3.062 0.609z"></path>
</symbol>
<symbol id="unselected" viewBox="0 0 32 32">
<path fill="#60677a" style="fill: var(--color2, #60677a)" d="M11.2 4.799h9.6c1.471 0 2.927 0.29 4.286 0.853s2.593 1.388 3.634 2.428c1.040 1.040 1.865 2.275 2.428 3.634s0.853 2.815 0.853 4.286c0 1.471-0.29 2.927-0.853 4.286s-1.388 2.593-2.428 3.634c-1.040 1.040-2.275 1.865-3.634 2.428s-2.815 0.853-4.286 0.853h-9.6c-1.471 0-2.927-0.29-4.286-0.853s-2.594-1.388-3.634-2.428c-1.040-1.040-1.865-2.275-2.428-3.634s-0.853-2.815-0.853-4.286c0-1.471 0.29-2.927 0.853-4.286s1.388-2.594 2.428-3.634 2.275-1.865 3.634-2.428c1.359-0.563 2.815-0.853 4.286-0.853zM11.2 23.999c2.122-0 4.157-0.843 5.657-2.344s2.343-3.536 2.343-5.658-0.843-4.157-2.344-5.657c-1.501-1.5-3.536-2.343-5.658-2.343-1.051 0-2.091 0.207-3.062 0.609s-1.853 0.992-2.595 1.735c-0.743 0.743-1.332 1.625-1.734 2.596s-0.609 2.011-0.609 3.062c0 1.051 0.207 2.091 0.609 3.062s0.992 1.853 1.735 2.596c0.743 0.743 1.625 1.332 2.596 1.734s2.011 0.609 3.062 0.609z"></path>
</symbol>
<symbol id="arrow-up" viewBox="0 0 32 32">
<path fill="none" stroke="#76b2ea" style="stroke: var(--color1, #76b2ea)" stroke-linejoin="round" stroke-linecap="round" stroke-miterlimit="4" stroke-width="1.6" d="M8 20l8-8 8 8"></path>
</symbol><symbol id="settingsActive" viewBox="0 0 32 32">
<path fill="none" stroke="#76b2ea" style="stroke: var(--color1, #76b2ea)" stroke-linejoin="round" stroke-linecap="round" stroke-miterlimit="4" stroke-width="1.3333" d="M16 20c2.209 0 4-1.791 4-4s-1.791-4-4-4c-2.209 0-4 1.791-4 4s1.791 4 4 4z"></path>
<path fill="none" stroke="#76b2ea" style="stroke: var(--color1, #76b2ea)" stroke-linejoin="round" stroke-linecap="round" stroke-miterlimit="4" stroke-width="1.3333" d="M25.867 20c-0.177 0.402-0.23 0.848-0.152 1.281s0.285 0.832 0.592 1.146l0.080 0.080c0.248 0.248 0.445 0.542 0.579 0.865s0.203 0.671 0.203 1.021-0.069 0.697-0.203 1.021c-0.134 0.324-0.331 0.618-0.579 0.865s-0.542 0.445-0.865 0.579c-0.324 0.134-0.671 0.203-1.021 0.203s-0.697-0.069-1.021-0.203c-0.324-0.134-0.618-0.331-0.865-0.579l-0.080-0.080c-0.314-0.307-0.713-0.514-1.146-0.592s-0.879-0.025-1.281 0.152c-0.394 0.169-0.731 0.45-0.968 0.807s-0.364 0.777-0.366 1.206v0.227c0 0.707-0.281 1.385-0.781 1.886s-1.178 0.781-1.886 0.781c-0.707 0-1.385-0.281-1.886-0.781s-0.781-1.178-0.781-1.886v-0.12c-0.010-0.441-0.153-0.869-0.41-1.228s-0.616-0.633-1.030-0.785c-0.402-0.177-0.848-0.23-1.281-0.152s-0.832 0.285-1.146 0.592l-0.080 0.080c-0.248 0.248-0.542 0.445-0.866 0.579s-0.671 0.203-1.021 0.203-0.697-0.069-1.021-0.203c-0.324-0.134-0.618-0.331-0.865-0.579s-0.445-0.542-0.579-0.865-0.203-0.671-0.203-1.021c0-0.35 0.069-0.697 0.203-1.021s0.331-0.618 0.579-0.865l0.080-0.080c0.307-0.314 0.514-0.713 0.592-1.146s0.026-0.879-0.152-1.281c-0.169-0.394-0.45-0.731-0.807-0.968s-0.777-0.364-1.206-0.366h-0.227c-0.707 0-1.386-0.281-1.886-0.781s-0.781-1.178-0.781-1.886c0-0.707 0.281-1.385 0.781-1.886s1.178-0.781 1.886-0.781h0.12c0.441-0.010 0.869-0.153 1.228-0.41s0.633-0.616 0.785-1.030c0.178-0.402 0.23-0.848 0.152-1.281s-0.285-0.832-0.592-1.146l-0.080-0.080c-0.248-0.248-0.445-0.542-0.579-0.866s-0.203-0.671-0.203-1.021c0-0.35 0.069-0.697 0.203-1.021s0.331-0.618 0.579-0.865c0.248-0.248 0.542-0.445 0.865-0.579s0.671-0.203 1.021-0.203c0.35 0 0.697 0.069 1.021 0.203s0.618 0.331 0.866 0.579l0.080 0.080c0.314 0.307 0.713 0.514 1.146 0.592s0.879 0.026 1.281-0.152h0.107c0.394-0.169 0.731-0.45 0.968-0.807s0.364-0.777 0.366-1.206v-0.227c0-0.707 0.281-1.386 0.781-1.886s1.178-0.781 1.886-0.781c0.707 0 1.385 0.281 1.886 0.781s0.781 1.178 0.781 1.886v0.12c0.002 0.429 0.129 0.848 0.366 1.206s0.573 0.638 0.968 0.807c0.402 0.178 0.848 0.23 1.281 0.152s0.832-0.285 1.146-0.592l0.080-0.080c0.248-0.248 0.542-0.445 0.865-0.579s0.671-0.203 1.021-0.203c0.35 0 0.697 0.069 1.021 0.203s0.618 0.331 0.865 0.579c0.248 0.248 0.445 0.542 0.579 0.865s0.203 0.671 0.203 1.021-0.069 0.697-0.203 1.021c-0.134 0.324-0.331 0.618-0.579 0.866l-0.080 0.080c-0.307 0.314-0.514 0.713-0.592 1.146s-0.025 0.879 0.152 1.281v0.107c0.169 0.394 0.45 0.731 0.807 0.968s0.777 0.364 1.206 0.366h0.227c0.707 0 1.385 0.281 1.886 0.781s0.781 1.178 0.781 1.886c0 0.707-0.281 1.385-0.781 1.886s-1.178 0.781-1.886 0.781h-0.12c-0.429 0.002-0.848 0.129-1.206 0.366s-0.638 0.573-0.807 0.968v0z"></path>
</symbol>
<symbol id="settingsNotActive" viewBox="0 0 32 32">
<path fill="none" stroke="#fff" style="stroke: var(--color1, #fff)" stroke-linejoin="round" stroke-linecap="round" stroke-miterlimit="4" stroke-width="1.3333" d="M16 20c2.209 0 4-1.791 4-4s-1.791-4-4-4c-2.209 0-4 1.791-4 4s1.791 4 4 4z"></path>
<path fill="none" stroke="#fff" style="stroke: var(--color1, #fff)" stroke-linejoin="round" stroke-linecap="round" stroke-miterlimit="4" stroke-width="1.3333" d="M25.867 20c-0.177 0.402-0.23 0.848-0.152 1.281s0.285 0.832 0.592 1.146l0.080 0.080c0.248 0.248 0.445 0.542 0.579 0.865s0.203 0.671 0.203 1.021-0.069 0.697-0.203 1.021c-0.134 0.324-0.331 0.618-0.579 0.865s-0.542 0.445-0.865 0.579c-0.324 0.134-0.671 0.203-1.021 0.203s-0.697-0.069-1.021-0.203c-0.324-0.134-0.618-0.331-0.865-0.579l-0.080-0.080c-0.314-0.307-0.713-0.514-1.146-0.592s-0.879-0.025-1.281 0.152c-0.394 0.169-0.731 0.45-0.968 0.807s-0.364 0.777-0.366 1.206v0.227c0 0.707-0.281 1.385-0.781 1.886s-1.178 0.781-1.886 0.781c-0.707 0-1.385-0.281-1.886-0.781s-0.781-1.178-0.781-1.886v-0.12c-0.010-0.441-0.153-0.869-0.41-1.228s-0.616-0.633-1.030-0.785c-0.402-0.177-0.848-0.23-1.281-0.152s-0.832 0.285-1.146 0.592l-0.080 0.080c-0.248 0.248-0.542 0.445-0.866 0.579s-0.671 0.203-1.021 0.203-0.697-0.069-1.021-0.203c-0.324-0.134-0.618-0.331-0.865-0.579s-0.445-0.542-0.579-0.865-0.203-0.671-0.203-1.021c0-0.35 0.069-0.697 0.203-1.021s0.331-0.618 0.579-0.865l0.080-0.080c0.307-0.314 0.514-0.713 0.592-1.146s0.026-0.879-0.152-1.281c-0.169-0.394-0.45-0.731-0.807-0.968s-0.777-0.364-1.206-0.366h-0.227c-0.707 0-1.386-0.281-1.886-0.781s-0.781-1.178-0.781-1.886c0-0.707 0.281-1.385 0.781-1.886s1.178-0.781 1.886-0.781h0.12c0.441-0.010 0.869-0.153 1.228-0.41s0.633-0.616 0.785-1.030c0.178-0.402 0.23-0.848 0.152-1.281s-0.285-0.832-0.592-1.146l-0.080-0.080c-0.248-0.248-0.445-0.542-0.579-0.866s-0.203-0.671-0.203-1.021c0-0.35 0.069-0.697 0.203-1.021s0.331-0.618 0.579-0.865c0.248-0.248 0.542-0.445 0.865-0.579s0.671-0.203 1.021-0.203c0.35 0 0.697 0.069 1.021 0.203s0.618 0.331 0.866 0.579l0.080 0.080c0.314 0.307 0.713 0.514 1.146 0.592s0.879 0.026 1.281-0.152h0.107c0.394-0.169 0.731-0.45 0.968-0.807s0.364-0.777 0.366-1.206v-0.227c0-0.707 0.281-1.386 0.781-1.886s1.178-0.781 1.886-0.781c0.707 0 1.385 0.281 1.886 0.781s0.781 1.178 0.781 1.886v0.12c0.002 0.429 0.129 0.848 0.366 1.206s0.573 0.638 0.968 0.807c0.402 0.178 0.848 0.23 1.281 0.152s0.832-0.285 1.146-0.592l0.080-0.080c0.248-0.248 0.542-0.445 0.865-0.579s0.671-0.203 1.021-0.203c0.35 0 0.697 0.069 1.021 0.203s0.618 0.331 0.865 0.579c0.248 0.248 0.445 0.542 0.579 0.865s0.203 0.671 0.203 1.021-0.069 0.697-0.203 1.021c-0.134 0.324-0.331 0.618-0.579 0.866l-0.080 0.080c-0.307 0.314-0.514 0.713-0.592 1.146s-0.025 0.879 0.152 1.281v0.107c0.169 0.394 0.45 0.731 0.807 0.968s0.777 0.364 1.206 0.366h0.227c0.707 0 1.385 0.281 1.886 0.781s0.781 1.178 0.781 1.886c0 0.707-0.281 1.385-0.781 1.886s-1.178 0.781-1.886 0.781h-0.12c-0.429 0.002-0.848 0.129-1.206 0.366s-0.638 0.573-0.807 0.968v0z"></path>
</symbol>
</defs>
</svg>
