<svg aria-hidden="true" style="position: absolute; width: 0; height: 0; overflow: hidden;" version="1.1" xmlns="http://www.w3.org/2000/svg" xmlns:xlink="http://www.w3.org/1999/xlink">
<defs>
<symbol id="action-menu" viewBox="0 0 32 32">
<path d="M18.667 8c0 1.473-1.194 2.667-2.667 2.667s-2.667-1.194-2.667-2.667c0-1.473 1.194-2.667 2.667-2.667s2.667 1.194 2.667 2.667z"></path>
<path d="M18.667 16c0 1.473-1.194 2.667-2.667 2.667s-2.667-1.194-2.667-2.667c0-1.473 1.194-2.667 2.667-2.667s2.667 1.194 2.667 2.667z"></path>
<path d="M18.667 24c0 1.473-1.194 2.667-2.667 2.667s-2.667-1.194-2.667-2.667c0-1.473 1.194-2.667 2.667-2.667s2.667 1.194 2.667 2.667z"></path>
</symbol>
<symbol id="active-off-1" viewBox="0 0 32 32">
<path stroke-linejoin="miter" stroke-linecap="butt" stroke-miterlimit="4" stroke-width="2.6667" d="M4 1.333h24c1.473 0 2.667 1.194 2.667 2.667v24c0 1.473-1.194 2.667-2.667 2.667h-24c-1.473 0-2.667-1.194-2.667-2.667v-24c0-1.473 1.194-2.667 2.667-2.667z"></path>
</symbol>
<symbol id="active-off-2" viewBox="0 0 32 32">
<path d="M30.667 16c0 8.1-6.567 14.667-14.667 14.667s-14.667-6.567-14.667-14.667c0-8.1 6.566-14.667 14.667-14.667s14.667 6.566 14.667 14.667zM3.208 16c0 7.065 5.727 12.792 12.792 12.792s12.792-5.727 12.792-12.792c0-7.065-5.727-12.792-12.792-12.792s-12.792 5.727-12.792 12.792z"></path>
</symbol>
<symbol id="active-off" viewBox="0 0 32 32">
<path d="M28 2c0.53 0 1.039 0.211 1.414 0.586s0.586 0.884 0.586 1.414v24c0 0.53-0.211 1.039-0.586 1.414s-0.884 0.586-1.414 0.586h-24c-0.53 0-1.039-0.211-1.414-0.586s-0.586-0.884-0.586-1.414v-24c0-0.53 0.211-1.039 0.586-1.414s0.884-0.586 1.414-0.586h24zM4 0c-1.061 0-2.078 0.421-2.828 1.172s-1.172 1.768-1.172 2.828v24c0 1.061 0.421 2.078 1.172 2.828s1.768 1.172 2.828 1.172h24c1.061 0 2.078-0.421 2.828-1.172s1.172-1.768 1.172-2.828v-24c0-1.061-0.421-2.078-1.172-2.828s-1.768-1.172-2.828-1.172h-24z"></path>
</symbol>
<symbol id="active-on-1" viewBox="0 0 32 32">
<path stroke-linejoin="miter" stroke-linecap="butt" stroke-miterlimit="4" stroke-width="2.6667" d="M4 1.333h24c1.473 0 2.667 1.194 2.667 2.667v24c0 1.473-1.194 2.667-2.667 2.667h-24c-1.473 0-2.667-1.194-2.667-2.667v-24c0-1.473 1.194-2.667 2.667-2.667z"></path>
<path d="M6.667 5.333h18.667c0.736 0 1.333 0.597 1.333 1.333v18.667c0 0.736-0.597 1.333-1.333 1.333h-18.667c-0.736 0-1.333-0.597-1.333-1.333v-18.667c0-0.736 0.597-1.333 1.333-1.333z"></path>
</symbol>
<symbol id="active-on-2" viewBox="0 0 32 32">
<path d="M26.667 16c0 5.891-4.776 10.667-10.667 10.667s-10.667-4.776-10.667-10.667c0-5.891 4.776-10.667 10.667-10.667s10.667 4.776 10.667 10.667z"></path>
<path d="M30.667 16c0 8.1-6.567 14.667-14.667 14.667s-14.667-6.567-14.667-14.667c0-8.1 6.566-14.667 14.667-14.667s14.667 6.566 14.667 14.667zM3.208 16c0 7.065 5.727 12.792 12.792 12.792s12.792-5.727 12.792-12.792c0-7.065-5.727-12.792-12.792-12.792s-12.792 5.727-12.792 12.792z"></path>
</symbol>
<symbol id="active-on" viewBox="0 0 32 32">
<path d="M1.172 1.172c0.75-0.75 1.768-1.172 2.828-1.172h24c1.061 0 2.078 0.421 2.828 1.172s1.172 1.768 1.172 2.828v24c0 1.061-0.421 2.078-1.172 2.828s-1.768 1.172-2.828 1.172h-24c-1.061 0-2.078-0.421-2.828-1.172s-1.172-1.768-1.172-2.828v-24c0-1.061 0.421-2.078 1.172-2.828zM22.992 9.505c-0.394 0.001-0.772 0.157-1.052 0.435h0.002c-0.014 0.014-0.028 0.028-0.040 0.044l-6.946 8.85-4.188-4.186c-0.137-0.147-0.303-0.266-0.487-0.348s-0.383-0.126-0.584-0.13c-0.201-0.004-0.401 0.033-0.588 0.109s-0.356 0.188-0.499 0.33c-0.142 0.142-0.255 0.312-0.33 0.499s-0.113 0.387-0.109 0.588c0.004 0.201 0.048 0.4 0.13 0.584s0.2 0.35 0.348 0.487l5.29 5.292c0.143 0.143 0.312 0.255 0.499 0.33s0.387 0.112 0.589 0.109c0.202-0.004 0.401-0.048 0.585-0.13s0.35-0.201 0.487-0.349l7.984-9.98c0.272-0.285 0.42-0.666 0.414-1.060s-0.168-0.77-0.45-1.046c-0.281-0.276-0.66-0.43-1.054-0.429z"></path>
</symbol>
<symbol id="arrow-down" viewBox="0 0 32 32">
<path stroke-linejoin="round" stroke-linecap="round" stroke-miterlimit="4" stroke-width="1.3333" d="M8 12l8 8 8-8"></path>
</symbol>
<symbol id="cards" viewBox="0 0 32 32">
<path stroke-linejoin="round" stroke-linecap="butt" stroke-miterlimit="4" stroke-width="1.3333" d="M16 5.333l-9.333 4 9.333 4 9.333-4-9.333-4z"></path>
<path d="M10.213 13.755l-3.809 1.633c-0.245 0.105-0.404 0.346-0.404 0.613s0.159 0.508 0.404 0.613l9.333 4c0.168 0.072 0.358 0.072 0.525 0l9.333-4c0.245-0.105 0.404-0.346 0.404-0.613s-0.159-0.508-0.404-0.613l-3.809-1.633-1.692 0.725 3.547 1.52-7.641 3.275-7.641-3.275 3.547-1.52-1.692-0.725z"></path>
<path d="M10.213 20.421l-3.809 1.633c-0.245 0.105-0.404 0.346-0.404 0.613s0.159 0.508 0.404 0.613l9.333 4c0.168 0.072 0.358 0.072 0.525 0l9.333-4c0.245-0.105 0.404-0.346 0.404-0.613s-0.159-0.508-0.404-0.613l-3.809-1.633-1.692 0.725 3.547 1.52-7.641 3.275-7.641-3.275 3.547-1.52-1.692-0.725z"></path>
</symbol>
<symbol id="dashboard" viewBox="0 0 32 32">
<path stroke-linejoin="miter" stroke-linecap="round" stroke-miterlimit="4" stroke-width="1.3333" d="M6.667 5.333h5.333c0.736 0 1.333 0.597 1.333 1.333v5.333c0 0.736-0.597 1.333-1.333 1.333h-5.333c-0.736 0-1.333-0.597-1.333-1.333v-5.333c0-0.736 0.597-1.333 1.333-1.333z"></path>
<path stroke-linejoin="miter" stroke-linecap="round" stroke-miterlimit="4" stroke-width="1.3333" d="M6.667 18.667h5.333c0.736 0 1.333 0.597 1.333 1.333v5.333c0 0.736-0.597 1.333-1.333 1.333h-5.333c-0.736 0-1.333-0.597-1.333-1.333v-5.333c0-0.736 0.597-1.333 1.333-1.333z"></path>
<path stroke-linejoin="miter" stroke-linecap="round" stroke-miterlimit="4" stroke-width="1.3333" d="M20 5.333h5.333c0.736 0 1.333 0.597 1.333 1.333v5.333c0 0.736-0.597 1.333-1.333 1.333h-5.333c-0.736 0-1.333-0.597-1.333-1.333v-5.333c0-0.736 0.597-1.333 1.333-1.333z"></path>
<path stroke-linejoin="miter" stroke-linecap="round" stroke-miterlimit="4" stroke-width="1.3333" d="M20 18.667h5.333c0.736 0 1.333 0.597 1.333 1.333v5.333c0 0.736-0.597 1.333-1.333 1.333h-5.333c-0.736 0-1.333-0.597-1.333-1.333v-5.333c0-0.736 0.597-1.333 1.333-1.333z"></path>
</symbol>
<symbol id="games" viewBox="0 0 32 32">
<path d="M18.667 18.667c0.736 0 1.333 0.597 1.333 1.333s-0.597 1.333-1.333 1.333c-0.736 0-1.333-0.597-1.333-1.333s0.597-1.333 1.333-1.333z"></path>
<path stroke-linejoin="miter" stroke-linecap="round" stroke-miterlimit="4" stroke-width="1.3333" d="M13.333 18.667h-5.333"></path>
<path stroke-linejoin="miter" stroke-linecap="round" stroke-miterlimit="4" stroke-width="1.3333" d="M10.667 16v5.333"></path>
<path d="M22.667 16c0.736 0 1.333 0.597 1.333 1.333s-0.597 1.333-1.333 1.333c-0.736 0-1.333-0.597-1.333-1.333s0.597-1.333 1.333-1.333z"></path>
<path stroke-linejoin="miter" stroke-linecap="round" stroke-miterlimit="4" stroke-width="1.3333" d="M18.667 10.667v0c0-0.556 0-0.834-0.046-1.078-0.16-0.849-0.721-1.568-1.506-1.929-0.226-0.104-0.496-0.171-1.035-0.306l-0.080-0.020c-0.615-0.154-0.922-0.231-1.177-0.356-0.731-0.36-1.258-1.034-1.43-1.831-0.060-0.278-0.060-0.595-0.060-1.228v-1.251"></path>
<path stroke-linejoin="miter" stroke-linecap="butt" stroke-miterlimit="4" stroke-width="1.3333" d="M4 18.667c0-3.412 0-5.118 0.827-6.293 0.213-0.303 0.461-0.573 0.738-0.806 1.077-0.902 2.641-0.902 5.768-0.902h9.333c3.127 0 4.691 0 5.768 0.902 0.277 0.232 0.526 0.503 0.738 0.806 0.827 1.175 0.827 2.881 0.827 6.293s0 5.118-0.827 6.293c-0.213 0.303-0.461 0.573-0.738 0.805-1.077 0.902-2.641 0.902-5.768 0.902h-9.333c-3.127 0-4.691 0-5.768-0.902-0.277-0.232-0.526-0.503-0.738-0.805-0.827-1.175-0.827-2.881-0.827-6.293z"></path>
</symbol>
<symbol id="info" viewBox="0 0 32 32">
<path stroke-linejoin="round" stroke-linecap="round" stroke-miterlimit="4" stroke-width="1.3333" d="M16 29.333c7.364 0 13.333-5.97 13.333-13.333s-5.97-13.333-13.333-13.333c-7.364 0-13.333 5.97-13.333 13.333s5.97 13.333 13.333 13.333z"></path>
<path stroke-linejoin="round" stroke-linecap="round" stroke-miterlimit="4" stroke-width="1.3333" d="M16 21.333v-5.333"></path>
<path stroke-linejoin="round" stroke-linecap="round" stroke-miterlimit="4" stroke-width="1.3333" d="M16 10.667h0.013"></path>
</symbol>
<symbol id="product" viewBox="0 0 32 32">
<path stroke-linejoin="miter" stroke-linecap="butt" stroke-miterlimit="4" stroke-width="1.3333" d="M5.333 12.876c0-1.090 0-1.635 0.203-2.125s0.588-0.875 1.359-1.646l0.876-0.876c0.771-0.771 1.156-1.156 1.646-1.359s1.035-0.203 2.125-0.203h8.915c1.090 0 1.635 0 2.125 0.203s0.875 0.588 1.646 1.359l0.876 0.876c0.771 0.771 1.156 1.156 1.359 1.646s0.203 1.035 0.203 2.125v8.458c0 2.514 0 3.771-0.781 4.552s-2.038 0.781-4.552 0.781h-10.667c-2.514 0-3.771 0-4.552-0.781s-0.781-2.038-0.781-4.552v-8.458z"></path>
<path stroke-linejoin="miter" stroke-linecap="round" stroke-miterlimit="4" stroke-width="1.3333" d="M5.333 13.333h21.333"></path>
<path d="M19.777 13.333h-7.556c-0.314 0-0.471 0-0.569 0.098s-0.098 0.255-0.098 0.569v4.222c0 1.020 0 1.53 0.132 1.804 0.294 0.612 1.001 0.905 1.642 0.68 0.287-0.101 0.648-0.461 1.369-1.182 0.334-0.334 0.501-0.501 0.679-0.595 0.39-0.206 0.857-0.206 1.247 0 0.177 0.094 0.345 0.261 0.679 0.595 0.721 0.721 1.082 1.082 1.369 1.182 0.641 0.224 1.348-0.069 1.642-0.68 0.132-0.274 0.132-0.784 0.132-1.804v-4.222c0-0.314 0-0.471-0.098-0.569s-0.255-0.098-0.569-0.098z"></path>
</symbol>
<symbol id="settings" viewBox="0 0 32 32">
<path stroke-linejoin="miter" stroke-linecap="round" stroke-miterlimit="4" stroke-width="1.3333" d="M16 9.333h10.667"></path>
<path stroke-linejoin="miter" stroke-linecap="round" stroke-miterlimit="4" stroke-width="1.3333" d="M5.333 9.333h5.333"></path>
<path stroke-linejoin="miter" stroke-linecap="round" stroke-miterlimit="4" stroke-width="1.3333" d="M22.667 22.667h4"></path>
<path stroke-linejoin="miter" stroke-linecap="round" stroke-miterlimit="4" stroke-width="1.3333" d="M5.333 22.667h10.667"></path>
<path stroke-linejoin="miter" stroke-linecap="round" stroke-miterlimit="4" stroke-width="1.3333" d="M13.333 12c-1.473 0-2.667-1.194-2.667-2.667s1.194-2.667 2.667-2.667c1.473 0 2.667 1.194 2.667 2.667s-1.194 2.667-2.667 2.667z"></path>
<path stroke-linejoin="miter" stroke-linecap="round" stroke-miterlimit="4" stroke-width="1.3333" d="M20 25.333c-1.473 0-2.667-1.194-2.667-2.667s1.194-2.667 2.667-2.667c1.473 0 2.667 1.194 2.667 2.667s-1.194 2.667-2.667 2.667z"></path>
</symbol>
<symbol id="user_light" viewBox="0 0 32 32">
<path stroke-linejoin="miter" stroke-linecap="round" stroke-miterlimit="4" stroke-width="1.3333" d="M26.303 27.263c-0.608-1.701-1.947-3.204-3.81-4.276s-4.145-1.653-6.493-1.653-4.631 0.581-6.493 1.653c-1.863 1.072-3.202 2.575-3.81 4.276"></path>
<path stroke-linejoin="miter" stroke-linecap="round" stroke-miterlimit="4" stroke-width="1.3333" d="M21.333 10.667c0 2.946-2.388 5.333-5.333 5.333s-5.333-2.388-5.333-5.333c0-2.946 2.388-5.333 5.333-5.333s5.333 2.388 5.333 5.333z"></path>
</symbol>
<symbol id="wear-tear" viewBox="0 0 32 32">
<path d="M13.136 8.694c-1.923-1.242-4.647-0.955-6.207 1.056l-0.381 0.491c-1.817 2.341-1.554 5.68 0.606 7.709l8.568 8.048c0.137 0.129 0.218 0.204 0.279 0.254 0.061-0.050 0.142-0.125 0.279-0.254l8.568-8.048c2.16-2.029 2.422-5.368 0.606-7.709l-0.381-0.491c-1.657-2.136-4.625-2.327-6.556-0.807l-0.825-1.047c2.476-1.95 6.295-1.719 8.434 1.037l0.381 0.491c2.238 2.885 1.915 6.999-0.746 9.499l-8.586 8.065c-0.132 0.124-0.263 0.248-0.385 0.341-0.136 0.105-0.312 0.215-0.541 0.26v0c-0.163 0.032-0.331 0.032-0.494 0v0c-0.229-0.045-0.405-0.155-0.541-0.26-0.122-0.094-0.253-0.218-0.385-0.341l-0.018-0.017-8.568-8.048c-2.661-2.5-2.984-6.614-0.746-9.499l0.381-0.491c2.199-2.835 6.176-2.998 8.642-0.865l0.482 0.417-1.529 1.938c-0.45 0.57-0.742 0.943-0.918 1.244-0.166 0.285-0.166 0.404-0.153 0.478s0.056 0.185 0.313 0.393c0.271 0.219 0.677 0.465 1.3 0.838l1.203 0.722c0.53 0.318 0.985 0.591 1.318 0.858 0.356 0.286 0.656 0.629 0.765 1.114s-0.015 0.924-0.214 1.335c-0.186 0.384-0.481 0.826-0.823 1.34l-0.938 1.407-1.109-0.74 0.913-1.37c0.375-0.562 0.617-0.928 0.759-1.22 0.133-0.275 0.129-0.388 0.113-0.46s-0.060-0.176-0.299-0.367c-0.253-0.203-0.628-0.43-1.208-0.778l-1.205-0.723c-0.571-0.342-1.059-0.635-1.411-0.92-0.376-0.304-0.691-0.671-0.786-1.189s0.069-0.973 0.313-1.391c0.229-0.392 0.581-0.838 0.993-1.361l0.741-0.939z"></path>
</symbol>
<symbol id="search" viewBox="0 0 32 32">
<path d="M31.008 27.231l-7.58-6.447c-0.784-0.705-1.622-1.029-2.299-0.998 1.789-2.096 2.87-4.815 2.87-7.787 0-6.627-5.373-12-12-12s-12 5.373-12 12 5.373 12 12 12c2.972 0 5.691-1.081 7.787-2.87-0.031 0.677 0.293 1.515 0.998 2.299l6.447 7.58c1.104 1.226 2.907 1.33 4.007 0.23s0.997-2.903-0.23-4.007zM12 20c-4.418 0-8-3.582-8-8s3.582-8 8-8 8 3.582 8 8-3.582 8-8 8z"></path>
</symbol>
</defs>
</svg>
